<svg width="40px" height="40px" viewBox="0 0 40 40" xmlns="http://www.w3.org/2000/svg" fill="#E36A36"><path d="M26.964 37.5H21.406a1.406 1.406 0 0 1 -1.406 -1.406V33.929a2.447 2.447 0 0 0 -0.759 -1.779c-0.608 -0.593 -1.491 -0.922 -2.413 -0.899 -1.669 0.039 -3.078 1.508 -3.078 3.208V36.094a1.406 1.406 0 0 1 -1.406 1.406H6.845A4.345 4.345 0 0 1 2.5 33.155V27.656a1.406 1.406 0 0 1 1.406 -1.406H6.071c0.716 0 1.412 -0.306 1.96 -0.859A3.286 3.286 0 0 0 8.984 23.053C8.961 21.398 7.598 20 6.009 20H3.906a1.406 1.406 0 0 1 -1.406 -1.406V13.095A4.345 4.345 0 0 1 6.845 8.75h4.316a0.625 0.625 0 0 0 0.625 -0.625V7.619A5.12 5.12 0 0 1 16.995 2.5c2.773 0.048 5.028 2.373 5.028 5.182V8.125a0.625 0.625 0 0 0 0.625 0.625h4.316A4.286 4.286 0 0 1 31.25 13.036V17.352a0.625 0.625 0 0 0 0.625 0.625h0.442c2.858 0 5.183 2.266 5.183 5.05 0 2.86 -2.296 5.188 -5.119 5.188H31.875a0.625 0.625 0 0 0 -0.625 0.625v4.375A4.286 4.286 0 0 1 26.964 37.5Z"/></svg>